<?xml version="1.0" encoding="UTF-8"?>
<svg xmlns="http://www.w3.org/2000/svg" version="1.1" viewBox="0 0 512 448.47">
  <!-- Generator: Adobe Illustrator 29.4.0, SVG Export Plug-In . SVG Version: 2.1.0 Build 152)  -->
  <defs>
    <style>
      .st0 {
        fill: #fff;
      }

      .st1 {
        stroke: #00042a;
        stroke-miterlimit: 10;
      }
    </style>
  </defs>
  <g id="Layer_1" image-rendering="optimizeQuality" shape-rendering="geometricPrecision" text-rendering="geometricPrecision">
    <rect class="st1" x=".5" y="-.04" width="512.14" height="450.02"/>
    <path class="st0" d="M16.37,33.11C7.33,33.11,0,25.78,0,16.75S7.33.38,16.37.38c18.05,0,46.68-1.81,64.84,2.51,24.1,5.76,39.36,21.75,45.89,45.77,1.37,5.87,2.79,11.74,4.23,17.61h364.3c9.04,0,16.37,7.33,16.37,16.37,0,1.77-.28,3.47-.8,5.06l-42.35,171.36c-1.83,7.45-8.51,12.44-15.86,12.43l-266.92.04c6.02,21.72,11.52,33.49,19.58,38.91,4.96,3.33,11.92,5.05,21.44,5.85,17.38,1.47,42.66.42,60.74.42h160.62c9.04,0,16.37,7.33,16.37,16.37s-7.33,16.37-16.37,16.37h-158.91c-21.3,0-49.26,1.21-69.61-1.14-12.95-1.49-23.31-4.62-32.44-10.76-17.35-11.65-26.5-31.46-35.7-67.91L95.52,57.23c-3.27-12.03-9.31-19.34-21.34-22.45-14.34-3.69-43.81-1.67-57.81-1.67ZM400.08,368.45c22.1,0,40.01,17.91,40.01,40.01s-17.91,40.01-40.01,40.01-40.01-17.91-40.01-40.01,17.92-40.01,40.01-40.01ZM224.67,368.45c22.1,0,40.01,17.91,40.01,40.01s-17.91,40.01-40.01,40.01-40.01-17.91-40.01-40.01,17.91-40.01,40.01-40.01h0ZM324.85,99.01v59.49h135.21l14.71-59.49s-149.92,0-149.92,0ZM324.85,191.23v47.56h115.37l11.75-47.56h-127.12ZM292.11,238.79v-47.56h-126.99c4.36,15.86,8.63,31.71,12.68,47.56h114.31ZM292.11,158.5v-59.49h-152.38c5.26,19.82,10.78,39.65,16.31,59.49h136.07Z"/>
  </g>
</svg>