<?xml version="1.0" encoding="UTF-8"?>
<svg id="Layer_1" xmlns="http://www.w3.org/2000/svg" version="1.1" viewBox="0 0 800 800">
  <!-- Generator: Adobe Illustrator 29.4.0, SVG Export Plug-In . SVG Version: 2.1.0 Build 152)  -->
  <defs>
    <style>
      .st0 {
        fill: #263238;
      }
    </style>
  </defs>
  <g id="profile_x2C__person">
    <path class="st0" d="M392.4,737.52c-206.77,0-375-168.23-375-375S185.63-12.48,392.4-12.48s375,168.23,375,375-168.23,375-375,375ZM392.4,12.52C199.4,12.52,42.4,169.52,42.4,362.52s157,350,350,350,350-157,350-350S585.4,12.52,392.4,12.52Z"/>
    <g id="team">
      <path class="st0" d="M583.4,480.34l-119.05-41.3-8.07-64.6c-5.38,7.67-13.08,13.65-23.1,16.77l7.32,58.62c.58,4.72,3.8,8.73,8.3,10.25l126.38,43.9c22.5,7.85,42.22,35.68,42.22,59.53v-.17c0,6.9,5.6,12.5,12.5,12.5s12.48-5.57,12.5-12.45c-.07-34.47-26.5-71.68-59-83.05Z"/>
      <path class="st0" d="M154.9,575.82c-6.9,0-12.5-5.6-12.5-12.5v.17c0-34.47,26.48-71.78,58.98-83.15l119.05-41.03.3-7c.85-6.85,7.22-11.63,13.98-10.85,6.82.85,11.7,7.1,10.85,13.98l-1.27,14.73c-.57,4.72-3.82,8.7-8.33,10.25l-126.35,43.55c-22.48,7.88-42.2,35.7-42.2,59.53v-.17c0,6.93-5.6,12.5-12.5,12.5Z"/>
      <path class="st0" d="M392.4,413.49c-69.48,0-104.8-46.1-105.03-161.72-.05-29.35,3.08-59.07,30.68-86.72,17.58-17.62,42.58-26.55,74.35-26.55s56.77,8.92,74.38,26.58c27.6,27.63,30.73,57.38,30.67,86.72-.25,115.6-35.58,161.7-105.05,161.7ZM392.4,163.49c-25.22,0-43.75,6.3-56.68,19.23-15.8,15.83-23.45,30-23.38,69.02.2,100.45,26.38,136.77,80.03,136.77s79.82-36.33,80.02-136.78c.08-39.02-7.57-53.2-23.37-69.02-12.87-12.92-31.4-19.22-56.62-19.22Z"/>
    </g>
  </g>
</svg>